<svg width="59" height="53" viewBox="0 0 59 53" fill="none" xmlns="http://www.w3.org/2000/svg">
<path fill-rule="evenodd" clip-rule="evenodd" d="M35.1714 0C31.5867 0 28.1964 1.62639 25.9571 4.42026L22.42 8.83333H8.85C3.96228 8.83333 0 12.7882 0 17.6667V44.1667C0 49.0452 3.96228 53 8.85 53H50.15C55.0377 53 59 49.0452 59 44.1667V5.88889C59 2.63655 56.3585 0 53.1 0H35.1714ZM53.1 14.7222V44.1667C53.1 45.7928 51.7792 47.1111 50.15 47.1111H8.85C7.22076 47.1111 5.9 45.7928 5.9 44.1667V17.6667C5.9 16.0405 7.22076 14.7222 8.85 14.7222H53.1Z" fill="#0B97B6"/>
</svg>
