<?xml version="1.0" encoding="utf-8"?>
<!-- Generator: Adobe Illustrator 25.1.0, SVG Export Plug-In . SVG Version: 6.00 Build 0)  -->
<svg version="1.1" id="레이어_1" xmlns="http://www.w3.org/2000/svg" xmlns:xlink="http://www.w3.org/1999/xlink" x="0px"
	 y="0px" viewBox="0 0 1324.46 693.76" style="enable-background:new 0 0 1324.46 693.76;" xml:space="preserve">
<style type="text/css">
	.st0{fill:none;stroke:#000000;stroke-miterlimit:10;}
</style>
<g>
	<path class="st0" d="M705.45,625.39c-17.54,0-34.69-1.66-51.31-4.81c-16.62,3.14-33.77,4.81-51.31,4.81
		c-14.71,0-29.14-1.17-43.22-3.4c39.95,22.69,86.15,35.66,135.38,35.66c127.96,0,235.47-87.55,265.9-206.01
		C920.7,553.4,821.48,625.39,705.45,625.39z"/>
	<path class="st0" d="M420.46,383.13c0-35.58,6.77-69.57,19.09-100.77c26.26-102.23,109.93-181.41,214.59-201.2
		c-16.62-3.14-33.77-4.81-51.31-4.81c-151.61,0-274.52,122.91-274.52,274.52c0,136.91,100.22,250.39,231.3,271.12
		C476.51,574.8,420.46,485.52,420.46,383.13z"/>
	<path class="st0" d="M654.13,620.58c-127.09-24.03-223.21-135.64-223.21-269.71c0-23.65,2.99-46.61,8.62-68.51
		c-12.32,31.2-19.09,65.19-19.09,100.77c0,102.38,56.06,191.67,139.15,238.86c14.08,2.23,28.51,3.4,43.22,3.4
		C620.36,625.39,637.51,623.72,654.13,620.58z"/>
	<path class="st0" d="M969.5,383.13c0,23.65-2.99,46.61-8.62,68.51c12.32-31.2,19.09-65.19,19.09-100.77
		c0-151.61-122.91-274.52-274.52-274.52c-17.54,0-34.69,1.66-51.31,4.81c30.04,5.68,58.35,16.25,84.06,30.85
		C869.27,132.74,969.5,246.23,969.5,383.13z"/>
	<path class="st0" d="M738.2,112.01c83.09,47.19,139.15,136.47,139.15,238.86c0,134.07-96.12,245.68-223.21,269.71
		c16.62,3.14,33.77,4.81,51.31,4.81c116.04,0,215.26-71.99,255.43-173.75c5.63-21.9,8.62-44.85,8.62-68.51
		C969.5,246.23,869.27,132.74,738.2,112.01z"/>
	<path class="st0" d="M439.54,282.36c40.18-101.76,139.4-173.75,255.43-173.75c14.71,0,29.14,1.17,43.22,3.4
		c-25.72-14.61-54.03-25.17-84.06-30.85C549.47,100.95,465.8,180.13,439.54,282.36z"/>
	<path class="st0" d="M877.34,350.87c0-102.38-56.06-191.67-139.15-238.86c-14.08-2.23-28.51-3.4-43.22-3.4
		c-116.04,0-215.26,71.99-255.43,173.75c-5.63,21.9-8.62,44.85-8.62,68.51c0,134.07,96.12,245.68,223.21,269.71
		C781.22,596.55,877.34,484.94,877.34,350.87z"/>
</g>
</svg>
