<svg width="61" height="63" viewBox="0 0 61 63" fill="none" xmlns="http://www.w3.org/2000/svg">
<path fill-rule="evenodd" clip-rule="evenodd" d="M49.3099 11.2751C44.0347 5.99989 35.4819 5.99989 30.2067 11.2751L6.32763 35.1542C5.00882 36.473 2.87062 36.473 1.55182 35.1542C0.233015 33.8354 0.233014 31.6972 1.55182 30.3783L25.4309 6.4993C33.3437 -1.41353 46.1729 -1.41353 54.0857 6.4993C61.9986 14.4121 61.9986 27.2413 54.0857 35.1542L31.4006 57.8393C25.466 63.7739 15.8441 63.7739 9.90949 57.8393C3.97487 51.9046 3.97487 42.2827 9.90949 36.3481L32.5946 13.663C36.551 9.7066 42.9656 9.7066 46.922 13.663C50.8784 17.6194 50.8784 24.034 46.922 27.9904L23.043 51.8695C21.7242 53.1883 19.586 53.1883 18.2672 51.8695C16.9484 50.5507 16.9483 48.4125 18.2672 47.0937L42.1462 23.2146C43.465 21.8958 43.465 19.7576 42.1462 18.4388C40.8274 17.12 38.6892 17.12 37.3704 18.4388L14.6853 41.1239C11.3883 44.4209 11.3883 49.7664 14.6853 53.0634C17.9823 56.3605 23.3278 56.3605 26.6248 53.0634L49.3099 30.3783C54.5851 25.1031 54.5851 16.5503 49.3099 11.2751Z" fill="#0B97B6"/>
</svg>
